<svg width="45" height="45" viewBox="0 0 45 45" fill="none" xmlns="http://www.w3.org/2000/svg">
<g clip-path="url(#clip0_30_158)">
<path d="M31.4493 0.0224997C31.3537 -0.0843753 27.9084 0.0646873 24.9103 3.31875C21.9121 6.57 22.3734 10.2994 22.4409 10.395C22.5084 10.4906 26.7159 10.6397 29.4018 6.85687C32.0878 3.07406 31.545 0.132187 31.4493 0.0224997ZM40.77 33.0216C40.635 32.7516 34.2309 29.5509 34.8271 23.3972C35.4234 17.2406 39.5381 15.5531 39.6028 15.3703C39.6675 15.1875 37.9237 13.1484 36.0759 12.1163C34.7192 11.3885 33.2176 10.9716 31.68 10.8956C31.3762 10.8872 30.3215 10.6284 28.1531 11.2219C26.7243 11.6128 23.504 12.8784 22.6181 12.9291C21.7293 12.9797 19.0856 11.4609 16.2421 11.0587C14.4225 10.7072 12.4931 11.4272 11.1121 11.9813C9.73402 12.5325 7.11277 14.1019 5.27902 18.2728C3.44527 22.4409 4.40433 29.0447 5.09058 31.0978C5.77683 33.1481 6.8484 36.5091 8.6709 38.9616C10.2909 41.7291 12.4396 43.65 13.3368 44.3025C14.234 44.955 16.7653 45.3881 18.5203 44.4909C19.9321 43.6247 22.4803 43.1269 23.4871 43.1634C24.4912 43.2 26.4712 43.5966 28.499 44.6794C30.105 45.2334 31.6237 45.0028 33.1453 44.3841C34.6668 43.7625 36.869 41.4056 39.4396 36.6272C40.4156 34.4053 40.86 33.2044 40.77 33.0216Z" fill="black"/>
<path d="M31.4493 0.0224997C31.3537 -0.0843753 27.9084 0.0646873 24.9103 3.31875C21.9121 6.57 22.3734 10.2994 22.4409 10.395C22.5084 10.4906 26.7159 10.6397 29.4018 6.85687C32.0878 3.07406 31.545 0.132187 31.4493 0.0224997ZM40.77 33.0216C40.635 32.7516 34.2309 29.5509 34.8271 23.3972C35.4234 17.2406 39.5381 15.5531 39.6028 15.3703C39.6675 15.1875 37.9237 13.1484 36.0759 12.1163C34.7192 11.3885 33.2176 10.9716 31.68 10.8956C31.3762 10.8872 30.3215 10.6284 28.1531 11.2219C26.7243 11.6128 23.504 12.8784 22.6181 12.9291C21.7293 12.9797 19.0856 11.4609 16.2421 11.0587C14.4225 10.7072 12.4931 11.4272 11.1121 11.9813C9.73402 12.5325 7.11277 14.1019 5.27902 18.2728C3.44527 22.4409 4.40433 29.0447 5.09058 31.0978C5.77683 33.1481 6.8484 36.5091 8.6709 38.9616C10.2909 41.7291 12.4396 43.65 13.3368 44.3025C14.234 44.955 16.7653 45.3881 18.5203 44.4909C19.9321 43.6247 22.4803 43.1269 23.4871 43.1634C24.4912 43.2 26.4712 43.5966 28.499 44.6794C30.105 45.2334 31.6237 45.0028 33.1453 44.3841C34.6668 43.7625 36.869 41.4056 39.4396 36.6272C40.4156 34.4053 40.86 33.2044 40.77 33.0216Z" fill="black"/>
</g>
<defs>
<clipPath id="clip0_30_158">
<rect width="45" height="45" fill="white"/>
</clipPath>
</defs>
</svg>
