<svg width="46" height="42" viewBox="0 0 46 42" fill="none" xmlns="http://www.w3.org/2000/svg">
<path d="M45.5923 17.2156C45.8659 18.625 46.0023 20.0531 46 21.4837C46 27.8727 43.4483 33.2748 39.0079 36.9313H39.0137C35.1306 40.1416 29.7926 42 23.4634 42C17.2405 42 11.2725 39.7876 6.87227 35.8494C2.47203 31.9113 0 26.5701 0 21.0007C0 15.4313 2.47203 10.0901 6.87227 6.15194C11.2725 2.21381 17.2405 0.00138566 23.4634 0.00138566C29.288 -0.0596655 34.9131 1.89876 39.1604 5.46645L32.4616 11.4618C30.0401 9.39588 26.8084 8.26459 23.4634 8.31186C17.3424 8.31186 12.1423 12.0077 10.2887 16.9846C9.30589 19.5924 9.30589 22.4168 10.2887 25.0247H10.2975C12.1599 29.9936 17.3512 33.6895 23.4722 33.6895C26.6339 33.6895 29.3498 32.965 31.4556 31.6841H31.4468C32.6696 30.9591 33.7155 30.0199 34.5215 28.9232C35.3276 27.8264 35.877 26.5949 36.1366 25.3029H23.4634V17.2182L45.5923 17.2156Z" fill="black"/>
</svg>
